<svg id="Layer_1" data-name="Layer 1" xmlns="http://www.w3.org/2000/svg" viewBox="0 0 323.23 42.44"><defs><style>.cls-1{fill:#fff;}</style></defs><path class="cls-1" d="M107.09,47.33a6.71,6.71,0,0,0-3-2.67,9.74,9.74,0,0,0-3.94-.83,11.39,11.39,0,0,0-3,.38,8.7,8.7,0,0,0-2.62,1.13,5.73,5.73,0,0,0-1.86,2,5.91,5.91,0,0,0-.7,2.91,6,6,0,0,0,.41,2.29,4.82,4.82,0,0,0,1.32,1.81,9.72,9.72,0,0,0,2.48,1.51,34.16,34.16,0,0,0,3.83,1.4c1.47.47,2.9,1,4.28,1.51A14.46,14.46,0,0,1,108,60.81a9.12,9.12,0,0,1,2.53,3.1,11.72,11.72,0,0,1-.19,9.62,10.38,10.38,0,0,1-3,3.48,13.12,13.12,0,0,1-4.29,2,18.94,18.94,0,0,1-8.35.37,15.57,15.57,0,0,1-3.21-.91A13,13,0,0,1,88.6,76.9a9.69,9.69,0,0,1-2.32-2.45l3.88-3.18a8,8,0,0,0,3.45,3.18,10.53,10.53,0,0,0,4.69,1.07,10.41,10.41,0,0,0,2.94-.43,8.88,8.88,0,0,0,2.67-1.26,7,7,0,0,0,1.94-2.08,5.4,5.4,0,0,0,.75-2.86A6.16,6.16,0,0,0,106,66a5.36,5.36,0,0,0-1.83-1.91,14.1,14.1,0,0,0-3.13-1.46l-4.42-1.51a27.16,27.16,0,0,1-3.77-1.48,11.61,11.61,0,0,1-3-2,8.76,8.76,0,0,1-2-2.91A10.3,10.3,0,0,1,91.13,42.4a13.26,13.26,0,0,1,4.15-2.08,17.59,17.59,0,0,1,10.76.3,11.66,11.66,0,0,1,4.77,3.48Z" transform="translate(-86.28 -39.62)"/><path class="cls-1" d="M117.71,40.59h6.74l12.94,29.92h.11l13-29.92h6.58V78.76h-4.53v-32h-.11l-13.69,32H136l-13.69-32h-.11v32h-4.53Z" transform="translate(-86.28 -39.62)"/><path class="cls-1" d="M179.93,40.59h4.26l16.22,38.17h-5.28l-3.88-9.38H172.16l-3.93,9.38h-5.12Zm2,5.83h-.1l-7.93,18.75h15.58Z" transform="translate(-86.28 -39.62)"/><path class="cls-1" d="M206.4,40.59h9.76a45.5,45.5,0,0,1,5.47.33,14.6,14.6,0,0,1,4.88,1.4,8.9,8.9,0,0,1,3.5,3.15,10.25,10.25,0,0,1,1.35,5.64,9.33,9.33,0,0,1-2.53,6.79,12.17,12.17,0,0,1-7,3.29l10.83,17.57H227.1L216.75,61.62h-5.82V78.76H206.4Zm4.53,16.82h4c1.26,0,2.56,0,3.91-.11a13.14,13.14,0,0,0,3.72-.7,6.34,6.34,0,0,0,2.8-1.86,5.33,5.33,0,0,0,1.11-3.63,5.91,5.91,0,0,0-.81-3.29,5.47,5.47,0,0,0-2.13-1.92,9.22,9.22,0,0,0-3-.89,26.31,26.31,0,0,0-3.32-.21h-6.36Z" transform="translate(-86.28 -39.62)"/><path class="cls-1" d="M266,44.8H253.36v34h-4.53v-34H236.22V40.59H266Z" transform="translate(-86.28 -39.62)"/><path class="cls-1" d="M375.4,58.62a16.84,16.84,0,0,1,.22,2.58,17.42,17.42,0,1,1-1.48-7l2.92-2a20.82,20.82,0,1,0,1.68,5.07Z" transform="translate(-86.28 -39.62)"/><path class="cls-1" d="M360.09,40.59a19.94,19.94,0,0,1,15.8,10.74l3.78-4.7-2.95,9-9-3,5.81-.26a17.3,17.3,0,0,0-13.68-9.25" transform="translate(-86.28 -39.62)"/><path class="cls-1" d="M275,72.24a9.13,9.13,0,0,0,3.65,3.62,10.72,10.72,0,0,0,5.1,1.19,10.23,10.23,0,0,0,3.35-.54A8.48,8.48,0,0,0,289.82,75a6.84,6.84,0,0,0,2.51-5.45,6,6,0,0,0-.83-3.29,6.76,6.76,0,0,0-2.24-2.14,17.35,17.35,0,0,0-3.16-1.43l-3.62-1.19a36.37,36.37,0,0,1-3.62-1.35,12.09,12.09,0,0,1-3.16-2,8.83,8.83,0,0,1-2.24-3.05,10.84,10.84,0,0,1-.84-4.53,9.88,9.88,0,0,1,1-4.51,9.76,9.76,0,0,1,2.7-3.3,12.09,12.09,0,0,1,3.92-2,15.78,15.78,0,0,1,4.64-.68,15,15,0,0,1,5.81,1.11,11,11,0,0,1,4.61,3.7l-3.07,2.21a9.07,9.07,0,0,0-3.16-2.83,9.19,9.19,0,0,0-4.3-.95,11.47,11.47,0,0,0-3.29.46,8.5,8.5,0,0,0-2.73,1.35,6.67,6.67,0,0,0-1.86,2.24,6.79,6.79,0,0,0-.7,3.19,6.12,6.12,0,0,0,1.46,4.4,10.38,10.38,0,0,0,3.64,2.43A39.49,39.49,0,0,0,286,59a23.16,23.16,0,0,1,4.75,1.81A10.28,10.28,0,0,1,294.44,64a9.42,9.42,0,0,1,1.46,5.59,10.46,10.46,0,0,1-1,4.59,10.16,10.16,0,0,1-2.62,3.38,11.34,11.34,0,0,1-3.81,2.07,14.34,14.34,0,0,1-4.48.71,17.89,17.89,0,0,1-7-1.33,12.71,12.71,0,0,1-5.45-4.45Z" transform="translate(-86.28 -39.62)"/><path class="cls-1" d="M302,41.08h3.56V57.93H327V41.08h3.56V79.31H327V61.17H305.56V79.31H302Z" transform="translate(-86.28 -39.62)"/><path class="cls-1" d="M386.18,41.08h11a20.72,20.72,0,0,1,4.18.46,12.41,12.41,0,0,1,4,1.59,9,9,0,0,1,3,3.11,9.63,9.63,0,0,1,1.16,4.94,10,10,0,0,1-.94,4.48A8.92,8.92,0,0,1,406,58.77a11.15,11.15,0,0,1-3.67,1.81,16,16,0,0,1-4.35.59h-8.26V79.31h-3.57Zm3.57,16.85h8.1a13,13,0,0,0,3-.35,7.67,7.67,0,0,0,2.59-1.13,6,6,0,0,0,1.83-2.08,6.63,6.63,0,0,0,.71-3.19,6.35,6.35,0,0,0-.73-3.13,6.49,6.49,0,0,0-1.89-2.13,7.73,7.73,0,0,0-2.68-1.22,12.43,12.43,0,0,0-3-.38h-7.88Z" transform="translate(-86.28 -39.62)"/></svg>